name rise37.2698peak67.6939fall79.5734.mot
datacolumns 19
datarows 30
range 18.83825900000000 18.88662500000000
endheader
time	ground_force1_vx	ground_force1_vy	ground_force1_vz	ground_force1_px	ground_force1_py	ground_force1_pz	ground_force2_vx	ground_force2_vy	ground_force2_vz	ground_force2_px	ground_force2_py	ground_force2_pz	ground_torque1_x	ground_torque1_y	ground_torque1_z	ground_torque2_x	ground_torque2_y	ground_torque2_z	
18.83825900000000	59.43625200000000	769.38933299999997	50.89410900000000	0.33717100000000	0.00000000000000	0.10536400000000	0.00000000000000	0.00000000000000	0.00000000000000	0.00000000000000	0.00000000000000	0.00000000000000	0.00000000000000	22.75764500000000	0.00000000000000	0.00000000000000	0.00000000000000	0.00000000000000	
18.83992700000000	59.03242200000000	772.15163199999995	51.18511400000000	0.33663400000000	0.00000000000000	0.10535800000000	0.00000000000000	0.00000000000000	0.00000000000000	0.00000000000000	0.00000000000000	0.00000000000000	0.00000000000000	22.94271100000000	0.00000000000000	0.00000000000000	0.00000000000000	0.00000000000000	
18.84160000000000	58.63117100000000	774.79425000000003	51.46957500000000	0.33613400000000	0.00000000000000	0.10534900000000	0.00000000000000	0.00000000000000	0.00000000000000	0.00000000000000	0.00000000000000	0.00000000000000	0.00000000000000	23.12543400000000	0.00000000000000	0.00000000000000	0.00000000000000	0.00000000000000	
18.84325900000000	58.23231800000000	777.31542300000001	51.74703400000000	0.33566900000000	0.00000000000000	0.10533700000000	0.00000000000000	0.00000000000000	0.00000000000000	0.00000000000000	0.00000000000000	0.00000000000000	0.00000000000000	23.30550400000000	0.00000000000000	0.00000000000000	0.00000000000000	0.00000000000000	
18.84493400000000	57.83564200000000	779.71356300000002	52.01700200000000	0.33523600000000	0.00000000000000	0.10532200000000	0.00000000000000	0.00000000000000	0.00000000000000	0.00000000000000	0.00000000000000	0.00000000000000	0.00000000000000	23.48259100000000	0.00000000000000	0.00000000000000	0.00000000000000	0.00000000000000	
18.84660100000000	57.44088600000000	781.98726699999997	52.27897000000000	0.33483300000000	0.00000000000000	0.10530500000000	0.00000000000000	0.00000000000000	0.00000000000000	0.00000000000000	0.00000000000000	0.00000000000000	0.00000000000000	23.65634000000000	0.00000000000000	0.00000000000000	0.00000000000000	0.00000000000000	
18.84826400000000	57.04776200000000	784.13532899999996	52.53240900000000	0.33445600000000	0.00000000000000	0.10528500000000	0.00000000000000	0.00000000000000	0.00000000000000	0.00000000000000	0.00000000000000	0.00000000000000	0.00000000000000	23.82637800000000	0.00000000000000	0.00000000000000	0.00000000000000	0.00000000000000	
18.84993200000000	56.65595600000000	786.15674500000000	52.77677600000000	0.33410200000000	0.00000000000000	0.10526200000000	0.00000000000000	0.00000000000000	0.00000000000000	0.00000000000000	0.00000000000000	0.00000000000000	0.00000000000000	23.99231500000000	0.00000000000000	0.00000000000000	0.00000000000000	0.00000000000000	
18.85159500000000	56.26513200000000	788.05071499999997	53.01151700000000	0.33377000000000	0.00000000000000	0.10523700000000	0.00000000000000	0.00000000000000	0.00000000000000	0.00000000000000	0.00000000000000	0.00000000000000	0.00000000000000	24.15374800000000	0.00000000000000	0.00000000000000	0.00000000000000	0.00000000000000	
18.85327000000000	55.87493700000000	789.81665799999996	53.23607400000000	0.33345500000000	0.00000000000000	0.10520900000000	0.00000000000000	0.00000000000000	0.00000000000000	0.00000000000000	0.00000000000000	0.00000000000000	0.00000000000000	24.31026100000000	0.00000000000000	0.00000000000000	0.00000000000000	0.00000000000000	
18.85492700000000	55.48500700000000	791.45420400000000	53.44988600000000	0.33315500000000	0.00000000000000	0.10517900000000	0.00000000000000	0.00000000000000	0.00000000000000	0.00000000000000	0.00000000000000	0.00000000000000	0.00000000000000	24.46143100000000	0.00000000000000	0.00000000000000	0.00000000000000	0.00000000000000	
18.85661300000000	55.09496900000000	792.96320800000001	53.65239500000000	0.33286600000000	0.00000000000000	0.10514700000000	0.00000000000000	0.00000000000000	0.00000000000000	0.00000000000000	0.00000000000000	0.00000000000000	0.00000000000000	24.60683100000000	0.00000000000000	0.00000000000000	0.00000000000000	0.00000000000000	
18.85826300000000	54.70444800000000	794.34374100000002	53.84305000000000	0.33258600000000	0.00000000000000	0.10511200000000	0.00000000000000	0.00000000000000	0.00000000000000	0.00000000000000	0.00000000000000	0.00000000000000	0.00000000000000	24.74603000000000	0.00000000000000	0.00000000000000	0.00000000000000	0.00000000000000	
18.85993400000000	54.31306900000000	795.59609899999998	54.02131200000000	0.33231000000000	0.00000000000000	0.10507600000000	0.00000000000000	0.00000000000000	0.00000000000000	0.00000000000000	0.00000000000000	0.00000000000000	0.00000000000000	24.87859700000000	0.00000000000000	0.00000000000000	0.00000000000000	0.00000000000000	
18.86161100000000	53.92046100000000	796.72079599999995	54.18665600000000	0.33203800000000	0.00000000000000	0.10503700000000	0.00000000000000	0.00000000000000	0.00000000000000	0.00000000000000	0.00000000000000	0.00000000000000	0.00000000000000	25.00410900000000	0.00000000000000	0.00000000000000	0.00000000000000	0.00000000000000	
18.86327600000000	53.52626400000000	797.71856600000001	54.33857900000000	0.33176400000000	0.00000000000000	0.10499600000000	0.00000000000000	0.00000000000000	0.00000000000000	0.00000000000000	0.00000000000000	0.00000000000000	0.00000000000000	25.12214700000000	0.00000000000000	0.00000000000000	0.00000000000000	0.00000000000000	
18.86492500000000	53.13012700000000	798.59036000000003	54.47659900000000	0.33148600000000	0.00000000000000	0.10495300000000	0.00000000000000	0.00000000000000	0.00000000000000	0.00000000000000	0.00000000000000	0.00000000000000	0.00000000000000	25.23230100000000	0.00000000000000	0.00000000000000	0.00000000000000	0.00000000000000	
18.86659300000000	52.73171800000000	799.33733900000004	54.60026100000000	0.33120100000000	0.00000000000000	0.10490900000000	0.00000000000000	0.00000000000000	0.00000000000000	0.00000000000000	0.00000000000000	0.00000000000000	0.00000000000000	25.33417800000000	0.00000000000000	0.00000000000000	0.00000000000000	0.00000000000000	
18.86826100000000	52.33072000000000	799.96087199999999	54.70914200000000	0.33090600000000	0.00000000000000	0.10486300000000	0.00000000000000	0.00000000000000	0.00000000000000	0.00000000000000	0.00000000000000	0.00000000000000	0.00000000000000	25.42739900000000	0.00000000000000	0.00000000000000	0.00000000000000	0.00000000000000	
18.86992800000000	51.92684100000000	800.46253000000002	54.80285000000000	0.33059800000000	0.00000000000000	0.10481500000000	0.00000000000000	0.00000000000000	0.00000000000000	0.00000000000000	0.00000000000000	0.00000000000000	0.00000000000000	25.51160200000000	0.00000000000000	0.00000000000000	0.00000000000000	0.00000000000000	
18.87159500000000	51.51981000000000	800.84407699999997	54.88103400000000	0.33027500000000	0.00000000000000	0.10476600000000	0.00000000000000	0.00000000000000	0.00000000000000	0.00000000000000	0.00000000000000	0.00000000000000	0.00000000000000	25.58645100000000	0.00000000000000	0.00000000000000	0.00000000000000	0.00000000000000	
18.87326100000000	51.10938500000000	801.10746800000004	54.94337700000000	0.32993300000000	0.00000000000000	0.10471500000000	0.00000000000000	0.00000000000000	0.00000000000000	0.00000000000000	0.00000000000000	0.00000000000000	0.00000000000000	25.65163100000000	0.00000000000000	0.00000000000000	0.00000000000000	0.00000000000000	
18.87493400000000	50.69535000000000	801.25483399999996	54.98960700000000	0.32957000000000	0.00000000000000	0.10466300000000	0.00000000000000	0.00000000000000	0.00000000000000	0.00000000000000	0.00000000000000	0.00000000000000	0.00000000000000	25.70685600000000	0.00000000000000	0.00000000000000	0.00000000000000	0.00000000000000	
18.87660000000000	50.27752100000000	801.28847900000005	55.01949700000000	0.32918400000000	0.00000000000000	0.10461100000000	0.00000000000000	0.00000000000000	0.00000000000000	0.00000000000000	0.00000000000000	0.00000000000000	0.00000000000000	25.75186600000000	0.00000000000000	0.00000000000000	0.00000000000000	0.00000000000000	
18.87826200000000	49.85574400000000	801.21086700000001	55.03286200000000	0.32877200000000	0.00000000000000	0.10455700000000	0.00000000000000	0.00000000000000	0.00000000000000	0.00000000000000	0.00000000000000	0.00000000000000	0.00000000000000	25.78643400000000	0.00000000000000	0.00000000000000	0.00000000000000	0.00000000000000	
18.87992700000000	49.42989800000000	801.02461300000004	55.02956800000000	0.32833100000000	0.00000000000000	0.10450200000000	0.00000000000000	0.00000000000000	0.00000000000000	0.00000000000000	0.00000000000000	0.00000000000000	0.00000000000000	25.81036600000000	0.00000000000000	0.00000000000000	0.00000000000000	0.00000000000000	
18.88159300000000	48.99989600000000	800.73247700000002	55.00952800000000	0.32786100000000	0.00000000000000	0.10444600000000	0.00000000000000	0.00000000000000	0.00000000000000	0.00000000000000	0.00000000000000	0.00000000000000	0.00000000000000	25.82350200000000	0.00000000000000	0.00000000000000	0.00000000000000	0.00000000000000	
18.88326000000000	48.56568600000000	800.33734500000003	54.97270500000000	0.32735800000000	0.00000000000000	0.10439000000000	0.00000000000000	0.00000000000000	0.00000000000000	0.00000000000000	0.00000000000000	0.00000000000000	0.00000000000000	25.82571900000000	0.00000000000000	0.00000000000000	0.00000000000000	0.00000000000000	
18.88492800000000	48.12725000000000	799.84222699999998	54.91911300000000	0.32682100000000	0.00000000000000	0.10433300000000	0.00000000000000	0.00000000000000	0.00000000000000	0.00000000000000	0.00000000000000	0.00000000000000	0.00000000000000	25.81692700000000	0.00000000000000	0.00000000000000	0.00000000000000	0.00000000000000	
18.88662500000000	47.68460200000000	799.25024099999996	54.84881600000000	0.32624900000000	0.00000000000000	0.10427500000000	0.00000000000000	0.00000000000000	0.00000000000000	0.00000000000000	0.00000000000000	0.00000000000000	0.00000000000000	25.79707900000000	0.00000000000000	0.00000000000000	0.00000000000000	0.00000000000000	
